<?xml version="1.0" encoding="utf-8"?>
<!-- Generator: Adobe Illustrator 27.4.1, SVG Export Plug-In . SVG Version: 6.00 Build 0)  -->
<svg version="1.1" id="Layer_1" xmlns="http://www.w3.org/2000/svg" xmlns:xlink="http://www.w3.org/1999/xlink" x="0px" y="0px"
	 viewBox="0 0 250 150" style="enable-background:new 0 0 250 150;" xml:space="preserve">
<style type="text/css">
	.st0{fill:#231F20;}
</style>
<path class="st0" d="M67.78,131.3c0.57-0.72,1.11-1.28,1.63-1.68c0.52-0.4,1.11-0.7,1.77-0.9c0.66-0.2,1.2-0.3,1.61-0.3
	c0.42,0,0.77,0.02,1.06,0.06v0.21c-0.89,0.06-1.67,0.29-2.33,0.71c-0.73,0.47-1.25,0.91-1.56,1.31c-0.31,0.4-0.55,0.72-0.73,0.96
	c-0.18,0.24-0.35,0.51-0.51,0.83c-0.27,0.49-0.5,0.94-0.69,1.36l-5.62,12.32c-0.76,1.61-1.17,2.68-1.23,3.21h-0.19l-6.83-14.2
	c-0.45-0.79-1.05-1.18-1.81-1.18h-0.17v-0.22h8.16v0.22h-0.19c-0.3,0-0.53,0.1-0.68,0.29c-0.15,0.19-0.23,0.38-0.23,0.55
	s0.03,0.34,0.09,0.52l3.08,7.39l3.88-8.9C66.71,132.88,67.21,132.02,67.78,131.3z"/>
<path class="st0" d="M69.45,148.66c0.37,0,0.69-0.13,0.96-0.4c0.27-0.27,0.41-0.59,0.42-0.96v-11.96c-0.01-0.37-0.15-0.69-0.42-0.95
	c-0.26-0.26-0.59-0.39-0.96-0.39h-0.28v-0.22h7.73v0.22h-0.28c-0.37,0-0.69,0.13-0.96,0.39c-0.26,0.26-0.4,0.57-0.42,0.95v11.96
	c0,0.37,0.14,0.69,0.41,0.96c0.27,0.27,0.6,0.4,0.97,0.4h0.28v0.22h-7.73v-0.22H69.45z"/>
<path class="st0" d="M95.98,133.82c-0.36,0-0.67,0.13-0.93,0.38c-0.26,0.25-0.39,0.56-0.41,0.92v11.11c0,1.06,0.07,1.88,0.22,2.46
	l0.06,0.3h-0.19l-10.32-9.18v7.34c0,0.52,0.22,0.9,0.67,1.14c0.2,0.11,0.42,0.17,0.65,0.17h0.41v0.22h-7.88v-0.22h0.41
	c0.36,0,0.67-0.13,0.93-0.38c0.26-0.25,0.39-0.56,0.39-0.94v-11.18c0-1-0.07-1.8-0.22-2.39l-0.06-0.3h0.22l10.32,9.18v-7.32
	c-0.01-0.37-0.15-0.69-0.41-0.94c-0.26-0.25-0.57-0.38-0.93-0.38h-0.41v-0.22h7.88v0.22H95.98z"/>
<path class="st0" d="M111.33,144.1c0,0.62-0.14,1.27-0.41,1.97c-0.27,0.7-0.71,1.34-1.31,1.93c-0.6,0.59-1.38,1.07-2.33,1.44
	c-0.95,0.37-1.98,0.56-3.1,0.56c-1.12,0-2.13-0.18-3.02-0.54c-1.67-0.66-2.75-1.82-3.25-3.47c-0.13-0.45-0.19-0.86-0.19-1.25
	c0-1.25,0.38-2.42,1.14-3.51l0.19,0.15c-0.47,0.85-0.71,1.67-0.71,2.45c0,0.98,0.24,1.84,0.73,2.58c0.49,0.75,1.14,1.33,1.96,1.75
	s1.65,0.62,2.51,0.62c0.86,0,1.58-0.14,2.16-0.41c0.59-0.27,1.02-0.64,1.29-1.1c0.27-0.46,0.41-0.94,0.41-1.44
	c0-0.5-0.18-1.02-0.54-1.54c-0.36-0.52-0.89-0.98-1.6-1.37l-3.51-2.07c-1.78-1.05-2.67-2.4-2.67-4.05c0-1.48,0.52-2.62,1.55-3.42
	c0.86-0.67,2.03-1.01,3.51-1.01c0.95,0,2.15,0.07,3.62,0.21h1.68l-0.45,3.51h-0.22c0-0.79-0.31-1.43-0.93-1.92
	c-0.62-0.49-1.41-0.73-2.37-0.73s-1.7,0.16-2.22,0.5c-0.52,0.33-0.8,0.77-0.84,1.31c-0.04,0.37,0.06,0.69,0.3,0.95
	c0.22,0.23,0.43,0.41,0.65,0.53c0.22,0.12,0.41,0.23,0.58,0.33c0.17,0.1,0.29,0.17,0.37,0.19l4.03,2.31c0.9,0.5,1.61,1.13,2.11,1.87
	C111.05,142.3,111.33,143.18,111.33,144.1z"/>
<path class="st0" d="M121.59,133.74v12.47c0.01,0.37,0.15,0.69,0.42,0.95c0.26,0.26,0.58,0.39,0.96,0.39h0.28v0.22h-7.73v-0.22h0.28
	c0.37,0,0.69-0.13,0.96-0.39c0.26-0.26,0.4-0.57,0.42-0.93v-12.49h-2.13c-0.86,0.01-1.54,0.27-2.02,0.76
	c-0.49,0.5-0.73,1.17-0.73,2.04v0.15l-0.22,0.02v-4.44c0.2,0.09,0.56,0.17,1.09,0.26c0.52,0.09,1.01,0.13,1.45,0.13h9.54
	c0.45,0,0.93-0.04,1.44-0.13c0.52-0.09,0.88-0.17,1.1-0.26v4.44l-0.21-0.02v-0.15c0-1.16-0.43-1.98-1.29-2.46
	c-0.42-0.22-0.91-0.33-1.49-0.34H121.59z"/>
<path class="st0" d="M136.58,132.38c1.85,0,3.45,0.31,4.79,0.93c1.34,0.62,2.37,1.52,3.09,2.7c0.72,1.18,1.08,2.59,1.08,4.21
	c0,2.46-0.8,4.38-2.39,5.76c-1.59,1.39-3.78,2.08-6.57,2.08c-2.79,0-4.97-0.69-6.56-2.08c-1.59-1.38-2.38-3.31-2.38-5.76
	c0-2.46,0.79-4.38,2.38-5.76C131.61,133.07,133.79,132.38,136.58,132.38z M133.51,145.2c0.74,1.19,1.77,1.79,3.08,1.79
	c1.31,0,2.34-0.6,3.08-1.79c0.74-1.19,1.11-2.85,1.11-4.98c0-2.12-0.37-3.78-1.11-4.98c-0.74-1.19-1.77-1.79-3.08-1.79
	c-1.31,0-2.34,0.6-3.08,1.79c-0.74,1.19-1.11,2.85-1.11,4.98C132.4,142.35,132.77,144,133.51,145.2z"/>
<path class="st0" d="M147.24,140.2c0-1.62,0.37-3.02,1.12-4.2c0.75-1.18,1.83-2.08,3.24-2.69c1.41-0.62,3.15-0.93,5.2-0.93
	c2.05,0,3.86,0.33,5.41,0.99l-0.22,4.11h-0.19c-0.42-1.45-1.02-2.48-1.81-3.1c-0.79-0.62-1.77-0.93-2.95-0.93
	c-1.59,0-2.84,0.59-3.73,1.77c-0.89,1.18-1.34,2.82-1.34,4.92c0,2.1,0.41,3.76,1.24,4.97c0.83,1.21,1.97,1.83,3.44,1.87
	c1.69,0,2.92-0.4,3.68-1.21c0.72-0.75,1.28-2.18,1.68-4.31h0.17l0.52,3.92c-1.06,1.78-3.07,2.67-6.02,2.66
	c-2.95-0.01-5.26-0.7-6.93-2.07C148.08,144.61,147.24,142.68,147.24,140.2z"/>
<path class="st0" d="M164.38,147.54c0.37,0,0.69-0.13,0.96-0.4c0.27-0.27,0.41-0.59,0.42-0.96v-11.96
	c-0.01-0.37-0.15-0.69-0.42-0.95c-0.26-0.26-0.59-0.39-0.96-0.39h-0.28v-0.22h7.73v0.22h-0.28c-0.37,0-0.69,0.13-0.96,0.39
	c-0.26,0.26-0.4,0.57-0.42,0.95v11.96c0,0.37,0.14,0.69,0.41,0.96c0.27,0.27,0.6,0.4,0.97,0.4h0.28v0.22h-7.73v-0.22H164.38z
	 M181.72,147.76h-2.33c-2.64,0-4.49-0.72-5.54-2.15c-0.43-0.57-1.04-1.5-1.82-2.77c-0.78-1.27-1.17-1.91-1.17-1.93l5.15-7.02
	c0.1-0.14,0.15-0.27,0.15-0.39c0-0.11-0.02-0.22-0.06-0.3c-0.1-0.22-0.3-0.32-0.6-0.32h-0.22v-0.19h5.19v0.19h-0.09
	c-0.96,0-1.75,0.35-2.37,1.06l-3.64,4.39l5.04,7.58c0.7,1.06,1.47,1.61,2.31,1.64V147.76z"/>
<path class="st0" d="M54.67,3.82v116.35c0,2.11,1.71,3.82,3.82,3.82h22.27c4.77,0,5.33-0.56,5.33-3.65s0-11.97,0-15.62
	c0-3.45-13.81-12.76-8.88-27.77c0.51-1.56,1.99-2.62,3.63-2.62l16.04,0c1.66,0,3.17,1.06,3.64,2.66c1.91,6.58-0.48,19.01-8.39,25.37
	c-1.04,0.84-1.69,2.07-1.69,3.41c0,5.07,0,17.01,0,14.84c0,0-0.42,3.37,4,3.37h82.55c1.94,0,3-2.33,1.66-3.73
	c-0.02-0.02-0.04-0.04-0.06-0.06c-1.89-1.89-55.12-53.09-56.66-54.35c-1.54-1.26-2.12-3.45,0-5.58s54.56-52.84,55.96-54.31
	c1.4-1.47,2.38-4.91-0.98-4.91h-21.99c-1.05,0-2.05,0.43-2.77,1.19c-6.19,6.55-35.93,37.97-37.94,39.98
	c-2.24,2.24-10.31,1.05-11.78,1.12c-1.08,0.05-9.43,8.17-13.76,12.44c-1.45,1.43-3.77,1.47-5.27,0.08l0,0
	c-1.57-1.45-1.64-3.9-0.17-5.44c4-4.18,11.13-11.64,11.83-12.34c0.98-0.98,0.77-8.91,0.7-11.01s19.5-19.29,21.6-21.46
	c2.1-2.17,2.1-5.61-0.32-5.61H58.48C56.37,0,54.67,1.71,54.67,3.82z"/>
</svg>
