<?xml version="1.0" encoding="utf-8"?>
<!-- Generator: Adobe Illustrator 27.4.1, SVG Export Plug-In . SVG Version: 6.00 Build 0)  -->
<svg version="1.1" id="Layer_1" xmlns="http://www.w3.org/2000/svg" xmlns:xlink="http://www.w3.org/1999/xlink" x="0px" y="0px"
	 viewBox="0 0 250 150" style="enable-background:new 0 0 250 150;" xml:space="preserve">
<style type="text/css">
	.st0{fill:#231F20;}
</style>
<path class="st0" d="M89.7,31.51c1.39-1.76,2.71-3.12,3.98-4.11c1.26-0.98,2.7-1.72,4.32-2.21c1.61-0.49,2.93-0.74,3.95-0.74
	c1.02,0,1.88,0.05,2.58,0.16v0.53c-2.18,0.14-4.07,0.72-5.69,1.74c-1.79,1.16-3.06,2.23-3.81,3.21c-0.76,0.98-1.35,1.77-1.79,2.34
	c-0.44,0.58-0.85,1.26-1.24,2.03c-0.67,1.19-1.23,2.3-1.68,3.32L76.56,67.9c-1.86,3.93-2.86,6.55-3,7.85h-0.47l-16.7-34.71
	c-1.09-1.93-2.56-2.9-4.42-2.9h-0.42v-0.53H71.5v0.53h-0.48c-0.74,0-1.29,0.24-1.66,0.71c-0.37,0.48-0.55,0.92-0.55,1.34
	s0.07,0.84,0.21,1.26l7.54,18.07l9.48-21.75C87.09,35.35,88.31,33.26,89.7,31.51z"/>
<path class="st0" d="M93.78,73.96c0.91,0,1.7-0.32,2.34-0.97c0.65-0.65,0.99-1.43,1.03-2.34V41.41c-0.03-0.91-0.38-1.68-1.03-2.32
	c-0.65-0.63-1.43-0.95-2.34-0.95h-0.68v-0.53H112v0.53h-0.69c-0.91,0-1.69,0.32-2.34,0.95c-0.65,0.63-0.99,1.4-1.02,2.32v29.23
	c0,0.91,0.33,1.7,1,2.34c0.67,0.65,1.46,0.97,2.37,0.97H112v0.53H93.09v-0.53H93.78z"/>
<path class="st0" d="M158.65,37.67c-0.88,0-1.63,0.31-2.27,0.92c-0.63,0.61-0.96,1.36-1,2.24v27.18c0,2.6,0.18,4.6,0.53,6.01
	l0.16,0.74h-0.48l-25.23-22.44v17.96c0,1.26,0.54,2.19,1.63,2.79c0.49,0.28,1.02,0.42,1.58,0.42h1v0.53h-19.28v-0.53h1
	c0.88,0,1.63-0.31,2.27-0.92c0.63-0.61,0.95-1.38,0.95-2.29V42.94c0-2.46-0.18-4.41-0.53-5.85l-0.16-0.74h0.53l25.23,22.44V40.88
	c-0.03-0.91-0.37-1.68-1-2.29c-0.63-0.62-1.38-0.92-2.26-0.92h-1v-0.53h19.28v0.53H158.65z"/>
<path class="st0" d="M33.29,110.6c0,1.51-0.33,3.12-1,4.82c-0.67,1.7-1.74,3.27-3.21,4.71c-1.47,1.44-3.37,2.62-5.69,3.53
	c-2.31,0.91-4.84,1.37-7.58,1.37s-5.2-0.44-7.38-1.32c-4.07-1.62-6.72-4.44-7.95-8.48C0.16,114.14,0,113.13,0,112.18
	c0-3.05,0.93-5.92,2.79-8.59l0.47,0.37c-1.16,2.07-1.74,4.07-1.74,6c0,2.39,0.6,4.5,1.79,6.32c1.2,1.83,2.79,3.25,4.8,4.27
	s4.05,1.53,6.13,1.53c2.09,0,3.85-0.33,5.29-1c1.44-0.67,2.49-1.56,3.16-2.69c0.67-1.12,1-2.3,1-3.53c0-1.23-0.44-2.48-1.32-3.77
	c-0.88-1.28-2.18-2.4-3.9-3.35L9.9,102.7c-4.35-2.56-6.53-5.86-6.53-9.9c0-3.62,1.26-6.41,3.79-8.37c2.11-1.65,4.97-2.48,8.59-2.48
	c2.32,0,5.27,0.18,8.85,0.53h4.11l-1.11,8.59h-0.53c0-1.93-0.75-3.49-2.26-4.69c-1.51-1.19-3.44-1.79-5.8-1.79s-4.16,0.4-5.42,1.21
	c-1.26,0.81-1.95,1.88-2.06,3.21c-0.1,0.91,0.14,1.68,0.74,2.32c0.53,0.56,1.05,0.99,1.58,1.29c0.53,0.3,1,0.57,1.42,0.82
	c0.42,0.25,0.72,0.41,0.9,0.47l9.85,5.64c2.21,1.23,3.93,2.76,5.16,4.58C32.59,106.19,33.29,108.35,33.29,110.6z"/>
<path class="st0" d="M58.36,85.26v30.5c0.03,0.91,0.38,1.68,1.03,2.32c0.65,0.63,1.43,0.95,2.34,0.95h0.68v0.53H43.51v-0.53h0.69
	c0.91,0,1.69-0.32,2.34-0.95c0.65-0.63,0.99-1.39,1.02-2.27V85.26h-5.21c-2.11,0.04-3.76,0.66-4.95,1.87
	c-1.2,1.21-1.79,2.87-1.79,4.98v0.37l-0.53,0.05V81.68c0.49,0.21,1.38,0.42,2.66,0.63c1.28,0.21,2.47,0.32,3.56,0.32h23.33
	c1.09,0,2.27-0.11,3.53-0.32c1.26-0.21,2.16-0.42,2.68-0.63v10.85l-0.52-0.05v-0.37c0-2.84-1.05-4.85-3.16-6.01
	c-1.02-0.53-2.23-0.81-3.63-0.84H58.36z"/>
<path class="st0" d="M95.02,81.95c4.53,0,8.44,0.75,11.72,2.27c3.28,1.51,5.8,3.71,7.56,6.61c1.76,2.9,2.63,6.33,2.63,10.3
	c0,6.01-1.95,10.7-5.85,14.09c-3.9,3.39-9.25,5.08-16.06,5.08c-6.82,0-12.16-1.69-16.04-5.08c-3.88-3.39-5.82-8.08-5.82-14.09
	c0-6,1.94-10.7,5.82-14.09C82.86,83.64,88.21,81.95,95.02,81.95z M87.52,113.28c1.8,2.92,4.32,4.37,7.53,4.37
	c3.21,0,5.72-1.46,7.53-4.37c1.81-2.91,2.71-6.97,2.71-12.17c0-5.2-0.9-9.25-2.71-12.17c-1.81-2.91-4.32-4.37-7.53-4.37
	c-3.21,0-5.73,1.46-7.53,4.37c-1.81,2.91-2.71,6.97-2.71,12.17C84.8,106.31,85.71,110.37,87.52,113.28z"/>
<path class="st0" d="M121.09,101.07c0-3.97,0.91-7.39,2.74-10.27c1.83-2.88,4.47-5.08,7.93-6.58c3.46-1.51,7.7-2.27,12.72-2.27
	c5.02,0,9.43,0.81,13.22,2.42l-0.53,10.06h-0.47c-1.02-3.54-2.49-6.07-4.42-7.58c-1.93-1.51-4.34-2.26-7.22-2.26
	c-3.9,0-6.94,1.44-9.11,4.32s-3.27,6.89-3.27,12.03c0,5.15,1.01,9.19,3.03,12.14c2.02,2.95,4.82,4.48,8.4,4.58
	c4.14,0,7.15-0.98,9.01-2.95c1.76-1.83,3.12-5.34,4.11-10.53h0.42l1.26,9.59c-2.6,4.35-7.51,6.52-14.72,6.5
	c-7.21-0.02-12.87-1.7-16.96-5.06C123.14,111.85,121.09,107.14,121.09,101.07z"/>
<path class="st0" d="M165.33,38.39v79.08c0,1.43,1.16,2.6,2.6,2.6h15.14c3.24,0,3.62-0.38,3.62-2.48s0-8.14,0-10.62
	c0-2.35-9.39-8.67-6.04-18.88c0.35-1.06,1.35-1.78,2.47-1.78l10.9,0c1.13,0,2.16,0.72,2.47,1.81c1.3,4.47-0.33,12.92-5.7,17.25
	c-0.71,0.57-1.15,1.41-1.15,2.32c0,3.45,0,11.56,0,10.09c0,0-0.29,2.29,2.72,2.29h56.11c1.32,0,2.04-1.59,1.13-2.54
	c-0.01-0.01-0.02-0.03-0.04-0.04c-1.29-1.29-37.47-36.08-38.51-36.94c-1.05-0.86-1.44-2.35,0-3.79
	c1.44-1.44,37.08-35.92,38.04-36.92s1.62-3.34-0.67-3.34h-14.95c-0.71,0-1.39,0.29-1.88,0.81c-4.21,4.45-24.42,25.81-25.79,27.17
	c-1.53,1.53-7.01,0.71-8.01,0.76c-0.74,0.04-6.41,5.55-9.35,8.46c-0.99,0.98-2.56,1-3.58,0.06v0c-1.07-0.98-1.12-2.65-0.12-3.7
	c2.72-2.84,7.57-7.91,8.04-8.39c0.67-0.67,0.52-6.05,0.48-7.48s13.25-13.11,14.68-14.59c1.43-1.48,1.43-3.81-0.21-3.81h-39.8
	C166.49,35.79,165.33,36.95,165.33,38.39z"/>
</svg>
