<?xml version="1.0" encoding="utf-8"?>
<!-- Generator: Adobe Illustrator 27.4.1, SVG Export Plug-In . SVG Version: 6.00 Build 0)  -->
<svg version="1.1" id="Layer_1" xmlns="http://www.w3.org/2000/svg" xmlns:xlink="http://www.w3.org/1999/xlink" x="0px" y="0px"
	 viewBox="0 0 250 150" style="enable-background:new 0 0 250 150;" xml:space="preserve">
<style type="text/css">
	.st0{fill:#231F20;}
</style>
<path d="M25.64,99.67c0.31-0.39,0.6-0.69,0.88-0.91c0.28-0.22,0.6-0.38,0.95-0.49c0.36-0.11,0.65-0.16,0.87-0.16
	c0.23,0,0.42,0.01,0.57,0.04v0.12c-0.48,0.03-0.9,0.16-1.26,0.38c-0.4,0.26-0.68,0.49-0.84,0.71c-0.17,0.22-0.3,0.39-0.4,0.52
	c-0.1,0.13-0.19,0.28-0.27,0.45c-0.15,0.26-0.27,0.51-0.37,0.73l-3.04,6.66c-0.41,0.87-0.63,1.45-0.66,1.73h-0.1l-3.69-7.67
	c-0.24-0.43-0.57-0.64-0.98-0.64h-0.09v-0.12h4.41v0.12h-0.11c-0.16,0-0.29,0.05-0.37,0.16c-0.08,0.11-0.12,0.2-0.12,0.3
	s0.02,0.19,0.05,0.28l1.67,3.99l2.09-4.81C25.07,100.52,25.33,100.05,25.64,99.67z"/>
<path d="M26.54,109.05c0.2,0,0.38-0.07,0.52-0.22c0.14-0.14,0.22-0.32,0.23-0.52v-6.46c-0.01-0.2-0.08-0.37-0.23-0.51
	c-0.14-0.14-0.32-0.21-0.52-0.21h-0.15v-0.12h4.18v0.12h-0.15c-0.2,0-0.37,0.07-0.52,0.21c-0.14,0.14-0.22,0.31-0.23,0.51v6.46
	c0,0.2,0.07,0.37,0.22,0.52c0.15,0.14,0.32,0.22,0.52,0.22h0.15v0.12h-4.18v-0.12H26.54z"/>
<path d="M40.88,101.03c-0.19,0-0.36,0.07-0.5,0.2c-0.14,0.14-0.21,0.3-0.22,0.49v6.01c0,0.57,0.04,1.02,0.12,1.33l0.04,0.16h-0.11
	l-5.58-4.96v3.97c0,0.28,0.12,0.49,0.36,0.62c0.11,0.06,0.23,0.09,0.35,0.09h0.22v0.12H31.3v-0.12h0.22c0.19,0,0.36-0.07,0.5-0.2
	c0.14-0.14,0.21-0.3,0.21-0.51v-6.04c0-0.54-0.04-0.97-0.12-1.29l-0.04-0.16h0.12l5.58,4.96v-3.96c-0.01-0.2-0.08-0.37-0.22-0.51
	c-0.14-0.14-0.31-0.2-0.5-0.2h-0.22v-0.12h4.26v0.12H40.88z"/>
<path d="M49.18,106.58c0,0.33-0.07,0.69-0.22,1.07c-0.15,0.38-0.38,0.72-0.71,1.04c-0.33,0.32-0.74,0.58-1.26,0.78
	c-0.51,0.2-1.07,0.3-1.68,0.3s-1.15-0.1-1.63-0.29c-0.9-0.36-1.49-0.98-1.76-1.87c-0.07-0.24-0.11-0.47-0.11-0.68
	c0-0.67,0.21-1.31,0.62-1.9l0.1,0.08c-0.26,0.46-0.38,0.9-0.38,1.33c0,0.53,0.13,0.99,0.4,1.4c0.26,0.4,0.62,0.72,1.06,0.94
	c0.44,0.22,0.89,0.34,1.36,0.34c0.46,0,0.85-0.07,1.17-0.22c0.32-0.15,0.55-0.35,0.7-0.59c0.15-0.25,0.22-0.51,0.22-0.78
	c0-0.27-0.1-0.55-0.29-0.83c-0.19-0.28-0.48-0.53-0.86-0.74l-1.9-1.12c-0.96-0.57-1.44-1.3-1.44-2.19c0-0.8,0.28-1.42,0.84-1.85
	c0.47-0.36,1.1-0.55,1.9-0.55c0.51,0,1.16,0.04,1.96,0.12h0.91l-0.24,1.9H47.8c0-0.43-0.17-0.77-0.5-1.04s-0.76-0.4-1.28-0.4
	s-0.92,0.09-1.2,0.27c-0.28,0.18-0.43,0.41-0.45,0.71c-0.02,0.2,0.03,0.37,0.16,0.51c0.12,0.12,0.23,0.22,0.35,0.29
	c0.12,0.07,0.22,0.13,0.31,0.18c0.09,0.05,0.16,0.09,0.2,0.1l2.18,1.25c0.49,0.27,0.87,0.61,1.14,1.01
	C49.02,105.61,49.18,106.08,49.18,106.58z"/>
<path d="M54.72,100.98v6.74c0.01,0.2,0.08,0.37,0.23,0.51c0.14,0.14,0.32,0.21,0.52,0.21h0.15v0.12h-4.18v-0.12h0.15
	c0.2,0,0.37-0.07,0.52-0.21c0.14-0.14,0.22-0.31,0.23-0.5v-6.75h-1.15c-0.47,0.01-0.83,0.15-1.09,0.41c-0.26,0.27-0.4,0.63-0.4,1.1
	v0.08l-0.12,0.01v-2.4c0.11,0.05,0.3,0.09,0.59,0.14c0.28,0.05,0.55,0.07,0.79,0.07h5.16c0.24,0,0.5-0.02,0.78-0.07
	c0.28-0.05,0.48-0.09,0.59-0.14v2.4l-0.12-0.01v-0.08c0-0.63-0.23-1.07-0.7-1.33c-0.22-0.12-0.49-0.18-0.8-0.19H54.72z"/>
<path d="M62.82,100.25c1,0,1.86,0.17,2.59,0.5c0.73,0.33,1.28,0.82,1.67,1.46c0.39,0.64,0.58,1.4,0.58,2.28
	c0,1.33-0.43,2.37-1.29,3.11c-0.86,0.75-2.04,1.12-3.55,1.12c-1.51,0-2.69-0.37-3.54-1.12c-0.86-0.75-1.29-1.79-1.29-3.11
	c0-1.33,0.43-2.36,1.29-3.11C60.13,100.62,61.31,100.25,62.82,100.25z M61.16,107.17c0.4,0.64,0.95,0.97,1.66,0.97
	c0.71,0,1.26-0.32,1.66-0.97c0.4-0.64,0.6-1.54,0.6-2.69c0-1.15-0.2-2.04-0.6-2.69c-0.4-0.64-0.95-0.97-1.66-0.97
	c-0.71,0-1.27,0.32-1.66,0.97c-0.4,0.64-0.6,1.54-0.6,2.69C60.56,105.63,60.76,106.53,61.16,107.17z"/>
<path d="M68.58,104.47c0-0.88,0.2-1.63,0.61-2.27c0.4-0.64,0.99-1.12,1.75-1.46c0.76-0.33,1.7-0.5,2.81-0.5
	c1.11,0,2.08,0.18,2.92,0.54l-0.12,2.22h-0.1c-0.23-0.78-0.55-1.34-0.98-1.68c-0.43-0.33-0.96-0.5-1.6-0.5
	c-0.86,0-1.53,0.32-2.01,0.95c-0.48,0.64-0.72,1.52-0.72,2.66c0,1.14,0.22,2.03,0.67,2.68c0.45,0.65,1.06,0.99,1.86,1.01
	c0.92,0,1.58-0.22,1.99-0.65c0.39-0.4,0.69-1.18,0.91-2.33h0.09l0.28,2.12c-0.57,0.96-1.66,1.44-3.25,1.44
	c-1.59,0-2.84-0.38-3.75-1.12C69.03,106.86,68.58,105.82,68.58,104.47z"/>
<path d="M77.85,108.44c0.2,0,0.38-0.07,0.52-0.22c0.14-0.14,0.22-0.32,0.23-0.52v-6.46c-0.01-0.2-0.08-0.37-0.23-0.51
	c-0.14-0.14-0.32-0.21-0.52-0.21h-0.15v-0.12h4.18v0.12h-0.15c-0.2,0-0.37,0.07-0.52,0.21c-0.14,0.14-0.22,0.31-0.23,0.51v6.46
	c0,0.2,0.07,0.37,0.22,0.52c0.15,0.14,0.32,0.22,0.52,0.22h0.15v0.12h-4.18v-0.12H77.85z M87.22,108.56h-1.26
	c-1.43,0-2.43-0.39-2.99-1.16c-0.23-0.31-0.56-0.81-0.98-1.5c-0.42-0.69-0.63-1.03-0.63-1.04l2.78-3.79
	c0.05-0.08,0.08-0.15,0.08-0.21c0-0.06-0.01-0.12-0.04-0.16c-0.05-0.12-0.16-0.17-0.33-0.17h-0.12v-0.1h2.81v0.1h-0.05
	c-0.52,0-0.95,0.19-1.28,0.57l-1.97,2.37l2.72,4.1c0.38,0.57,0.8,0.87,1.25,0.88V108.56z"/>
<path d="M18.55,30.77v62.88c0,1.14,0.92,2.06,2.06,2.06h12.03c2.58,0,2.88-0.3,2.88-1.97s0-6.47,0-8.44c0-1.86-7.46-6.89-4.8-15.01
	c0.28-0.84,1.07-1.41,1.96-1.41l8.67,0c0.9,0,1.72,0.57,1.97,1.44c1.03,3.55-0.26,10.27-4.53,13.71c-0.56,0.45-0.91,1.12-0.91,1.84
	c0,2.74,0,9.19,0,8.02c0,0-0.23,1.82,2.16,1.82h44.61c1.05,0,1.62-1.26,0.9-2.02c-0.01-0.01-0.02-0.02-0.03-0.03
	C84.49,92.64,55.73,64.98,54.9,64.3c-0.83-0.68-1.15-1.87,0-3.01c1.15-1.15,29.48-28.55,30.24-29.35c0.76-0.8,1.29-2.65-0.53-2.65
	H72.72c-0.57,0-1.11,0.23-1.5,0.64c-3.35,3.54-19.41,20.52-20.5,21.6c-1.21,1.21-5.57,0.57-6.37,0.61c-0.59,0.03-5.1,4.41-7.44,6.72
	c-0.78,0.78-2.04,0.79-2.85,0.04l0,0c-0.85-0.78-0.89-2.11-0.09-2.94c2.16-2.26,6.02-6.29,6.4-6.67c0.53-0.53,0.42-4.81,0.38-5.95
	c-0.04-1.14,10.54-10.42,11.67-11.6c1.14-1.17,1.14-3.03-0.17-3.03H20.62C19.48,28.71,18.55,29.63,18.55,30.77z"/>
<path class="st0" d="M147.18,36.19c0.79-1,1.55-1.79,2.27-2.35c0.72-0.56,1.55-0.98,2.47-1.26c0.92-0.28,1.68-0.42,2.26-0.42
	c0.58,0,1.08,0.03,1.48,0.09v0.3c-1.25,0.08-2.33,0.41-3.25,0.99c-1.02,0.66-1.75,1.28-2.18,1.84c-0.43,0.56-0.77,1.01-1.02,1.34
	c-0.25,0.33-0.49,0.72-0.71,1.16c-0.38,0.68-0.7,1.32-0.96,1.9L139.67,57c-1.07,2.25-1.64,3.75-1.72,4.49h-0.27l-9.55-19.85
	c-0.62-1.1-1.47-1.66-2.53-1.66h-0.24v-0.3h11.41v0.3h-0.27c-0.42,0-0.74,0.13-0.95,0.41c-0.21,0.27-0.32,0.53-0.32,0.77
	c0,0.24,0.04,0.48,0.12,0.72l4.31,10.33l5.42-12.44C145.69,38.39,146.39,37.19,147.18,36.19z"/>
<path class="st0" d="M149.51,60.46c0.52,0,0.97-0.19,1.34-0.56c0.37-0.37,0.57-0.82,0.59-1.34V41.85c-0.02-0.52-0.22-0.96-0.59-1.32
	c-0.37-0.36-0.82-0.54-1.34-0.54h-0.39v-0.3h10.81v0.3h-0.39c-0.52,0-0.97,0.18-1.34,0.54c-0.37,0.36-0.57,0.8-0.59,1.32v16.72
	c0,0.52,0.19,0.97,0.57,1.34c0.38,0.37,0.83,0.56,1.36,0.56h0.39v0.3h-10.81v-0.3H149.51z"/>
<path class="st0" d="M186.61,39.71c-0.5,0-0.93,0.18-1.3,0.53c-0.36,0.35-0.55,0.78-0.57,1.28v15.54c0,1.49,0.1,2.63,0.3,3.43
	l0.09,0.42h-0.27l-14.43-12.83v10.27c0,0.72,0.31,1.25,0.93,1.6c0.28,0.16,0.58,0.24,0.9,0.24h0.57v0.3h-11.02v-0.3h0.57
	c0.5,0,0.93-0.18,1.3-0.53c0.36-0.35,0.54-0.79,0.54-1.31V42.72c0-1.4-0.1-2.52-0.3-3.34l-0.09-0.42h0.3l14.43,12.83V41.55
	c-0.02-0.52-0.21-0.96-0.57-1.31c-0.36-0.35-0.79-0.53-1.29-0.53h-0.57v-0.3h11.02v0.3H186.61z"/>
<path class="st0" d="M114.92,81.41c0,0.86-0.19,1.78-0.57,2.76c-0.38,0.97-1,1.87-1.84,2.69c-0.84,0.82-1.93,1.5-3.25,2.02
	c-1.32,0.52-2.77,0.78-4.34,0.78s-2.97-0.25-4.22-0.75c-2.33-0.92-3.84-2.54-4.55-4.85c-0.18-0.62-0.27-1.2-0.27-1.75
	c0-1.75,0.53-3.38,1.6-4.91l0.27,0.21c-0.66,1.18-0.99,2.33-0.99,3.43c0,1.37,0.34,2.57,1.02,3.61c0.68,1.04,1.6,1.86,2.74,2.44
	c1.14,0.58,2.31,0.87,3.51,0.87c1.2,0,2.2-0.19,3.03-0.57c0.82-0.38,1.43-0.89,1.81-1.54c0.38-0.64,0.57-1.31,0.57-2.02
	c0-0.7-0.25-1.42-0.75-2.15c-0.5-0.73-1.25-1.37-2.23-1.91l-4.91-2.89c-2.49-1.47-3.73-3.35-3.73-5.66c0-2.07,0.72-3.66,2.17-4.79
	c1.21-0.94,2.84-1.42,4.91-1.42c1.33,0,3.01,0.1,5.06,0.3h2.35l-0.63,4.91h-0.3c0-1.1-0.43-2-1.29-2.68
	c-0.86-0.68-1.97-1.02-3.31-1.02s-2.38,0.23-3.1,0.69c-0.72,0.46-1.12,1.07-1.18,1.84c-0.06,0.52,0.08,0.96,0.42,1.32
	c0.3,0.32,0.6,0.57,0.9,0.74c0.3,0.17,0.57,0.33,0.81,0.47c0.24,0.14,0.41,0.23,0.51,0.27l5.63,3.22c1.26,0.7,2.25,1.58,2.95,2.62
	C114.52,78.9,114.92,80.13,114.92,81.41z"/>
<path class="st0" d="M129.26,66.93v17.44c0.02,0.52,0.22,0.96,0.59,1.32c0.37,0.36,0.82,0.54,1.34,0.54h0.39v0.3h-10.81v-0.3h0.39
	c0.52,0,0.97-0.18,1.34-0.54c0.37-0.36,0.57-0.79,0.59-1.3V66.93h-2.98c-1.21,0.02-2.15,0.38-2.83,1.07
	c-0.68,0.69-1.02,1.64-1.02,2.85v0.21l-0.3,0.03v-6.2c0.28,0.12,0.79,0.24,1.52,0.36c0.73,0.12,1.41,0.18,2.03,0.18h13.34
	c0.62,0,1.3-0.06,2.02-0.18c0.72-0.12,1.24-0.24,1.53-0.36v6.2l-0.3-0.03v-0.21c0-1.63-0.6-2.77-1.81-3.43
	c-0.58-0.3-1.27-0.46-2.08-0.48H129.26z"/>
<path class="st0" d="M150.22,65.03c2.59,0,4.82,0.43,6.7,1.3c1.88,0.86,3.32,2.12,4.32,3.78c1,1.66,1.5,3.62,1.5,5.89
	c0,3.43-1.11,6.12-3.34,8.06c-2.23,1.94-5.29,2.91-9.18,2.91c-3.9,0-6.95-0.97-9.17-2.91c-2.22-1.94-3.33-4.62-3.33-8.06
	c0-3.43,1.11-6.12,3.33-8.06C143.27,66,146.33,65.03,150.22,65.03z M145.93,82.95c1.03,1.67,2.47,2.5,4.31,2.5
	c1.84,0,3.27-0.83,4.31-2.5c1.03-1.67,1.55-3.99,1.55-6.96c0-2.97-0.52-5.29-1.55-6.96c-1.03-1.67-2.47-2.5-4.31-2.5
	c-1.84,0-3.27,0.83-4.31,2.5c-1.03,1.67-1.55,3.99-1.55,6.96C144.38,78.97,144.9,81.28,145.93,82.95z"/>
<path class="st0" d="M165.13,75.96c0-2.27,0.52-4.23,1.57-5.87c1.04-1.65,2.55-2.9,4.53-3.76c1.98-0.86,4.4-1.3,7.27-1.3
	c2.87,0,5.39,0.46,7.56,1.38l-0.3,5.75h-0.27c-0.58-2.03-1.43-3.47-2.53-4.34c-1.11-0.86-2.48-1.29-4.13-1.29
	c-2.23,0-3.97,0.82-5.21,2.47s-1.87,3.94-1.87,6.88c0,2.94,0.58,5.26,1.73,6.94c1.15,1.69,2.75,2.56,4.8,2.62
	c2.37,0,4.09-0.56,5.15-1.69c1-1.04,1.79-3.05,2.35-6.02h0.24l0.72,5.48c-1.49,2.49-4.29,3.73-8.42,3.72
	c-4.13-0.01-7.36-0.97-9.7-2.89C166.3,82.13,165.13,79.44,165.13,75.96z"/>
<path class="st0" d="M190.43,40.12v45.22c0,0.82,0.66,1.48,1.48,1.48h8.66c1.85,0,2.07-0.22,2.07-1.42c0-1.2,0-4.65,0-6.07
	c0-1.34-5.37-4.96-3.45-10.79c0.2-0.61,0.77-1.02,1.41-1.02l6.23,0c0.65,0,1.23,0.41,1.41,1.03c0.74,2.56-0.19,7.39-3.26,9.86
	c-0.41,0.33-0.66,0.8-0.66,1.33c0,1.97,0,6.61,0,5.77c0,0-0.16,1.31,1.55,1.31h32.08c0.75,0,1.17-0.91,0.65-1.45
	c-0.01-0.01-0.01-0.01-0.02-0.02c-0.74-0.74-21.42-20.63-22.02-21.12c-0.6-0.49-0.82-1.34,0-2.17c0.82-0.82,21.21-20.54,21.75-21.11
	c0.55-0.57,0.93-1.91-0.38-1.91h-8.55c-0.41,0-0.8,0.17-1.08,0.46c-2.41,2.54-13.96,14.76-14.74,15.54
	c-0.87,0.87-4.01,0.41-4.58,0.44c-0.42,0.02-3.67,3.17-5.35,4.84c-0.56,0.56-1.47,0.57-2.05,0.03l0,0
	c-0.61-0.56-0.64-1.52-0.07-2.11c1.55-1.63,4.33-4.52,4.6-4.8c0.38-0.38,0.3-3.46,0.27-4.28s7.58-7.5,8.39-8.34s0.82-2.18-0.12-2.18
	h-22.76C191.09,38.64,190.43,39.3,190.43,40.12z"/>
</svg>
