<?xml version="1.0" encoding="utf-8"?>
<!-- Generator: Adobe Illustrator 27.4.1, SVG Export Plug-In . SVG Version: 6.00 Build 0)  -->
<svg version="1.1" id="Layer_1" xmlns="http://www.w3.org/2000/svg" xmlns:xlink="http://www.w3.org/1999/xlink" x="0px" y="0px"
	 viewBox="0 0 250 150" style="enable-background:new 0 0 250 150;" xml:space="preserve">
<style type="text/css">
	.st0{fill:#FFFFFF;}
</style>
<path class="st0" d="M82.66,35.46v79.08c0,1.43,1.16,2.6,2.6,2.6h15.14c3.24,0,3.62-0.38,3.62-2.48c0-2.1,0-8.14,0-10.62
	c0-2.35-9.39-8.67-6.04-18.88c0.35-1.06,1.35-1.78,2.47-1.78l10.9,0c1.13,0,2.16,0.72,2.47,1.81c1.3,4.47-0.33,12.92-5.7,17.25
	c-0.71,0.57-1.15,1.41-1.15,2.32c0,3.45,0,11.56,0,10.09c0,0-0.29,2.29,2.72,2.29h56.11c1.32,0,2.04-1.59,1.13-2.54
	c-0.01-0.01-0.02-0.03-0.04-0.04c-1.29-1.29-37.47-36.08-38.51-36.94c-1.05-0.86-1.44-2.35,0-3.79
	c1.44-1.44,37.08-35.92,38.04-36.92s1.62-3.34-0.67-3.34H150.8c-0.71,0-1.39,0.29-1.88,0.81c-4.21,4.45-24.42,25.81-25.79,27.17
	c-1.53,1.53-7.01,0.71-8.01,0.76c-0.74,0.04-6.41,5.55-9.35,8.46c-0.99,0.98-2.56,1-3.58,0.06l0,0c-1.07-0.98-1.12-2.65-0.12-3.7
	c2.72-2.84,7.57-7.91,8.04-8.39c0.67-0.67,0.52-6.05,0.48-7.48c-0.05-1.43,13.25-13.11,14.68-14.59c1.43-1.48,1.43-3.81-0.21-3.81
	h-39.8C83.83,32.86,82.66,34.02,82.66,35.46z"/>
</svg>
